<?xml version="1.0" standalone="no"?>
<svg xmlns="http://www.w3.org/2000/svg" viewBox="0 0 56.954 65.765" width="56.954" height="65.765"><polygon fill="none" stroke="#ffffff" stroke-width="3" points="55.454,17.19125 55.454,48.573750000000004 28.477,64.265 1.5,48.573750000000004 1.5,17.19125 28.477,1.5"></polygon><path fill="#000000" fill-rule="nonzero" d="M2.98 22.03L2.98 22.03Q2.06 22.05 1.46 21.70Q0.87 21.35 0.53 20.68Q0.19 20.02 0.09 19.07Q0 18.12 0.09 16.99L0.09 16.99Q0.21 16.13 0.52 15.19L0.52 15.19Q0.77 14.39 1.30 13.43Q1.83 12.47 2.72 11.55L2.72 11.55Q2.91 11.60 3.02 11.66Q3.14 11.72 3.21 11.79L3.21 11.79Q3.28 11.88 3.30 11.95L3.30 11.95Q3.35 12.21 3.16 12.54Q2.98 12.87 2.79 13.24L2.79 13.24Q2.27 14.32 2.02 15.28Q1.76 16.24 1.69 17.06L1.69 17.06Q1.64 17.77 1.70 18.34Q1.76 18.91 1.88 19.32Q1.99 19.73 2.13 19.96Q2.27 20.18 2.39 20.18L2.39 20.18Q2.51 20.18 2.64 20.02Q2.77 19.85 2.88 19.62L2.88 19.62Q3.02 19.38 3.21 18.90Q3.40 18.42 3.61 17.79Q3.82 17.16 4.02 16.42Q4.22 15.68 4.38 14.93L4.38 14.93Q4.71 13.43 5.09 11.54Q5.46 9.66 6.19 7.59L6.19 7.59Q6.42 6.73 6.77 5.70L6.77 5.70Q7.05 4.80 7.49 3.62Q7.92 2.44 8.48 1.05L8.48 1.05Q8.48 0.94 8.68 0.83Q8.88 0.73 9.14 0.61L9.14 0.61Q9.42 0.49 9.77 0.38L9.77 0.38Q10.24 0.21 10.51 0.19Q10.78 0.16 10.92 0.26Q11.06 0.35 11.11 0.50Q11.16 0.66 11.16 0.84L11.16 0.84Q11.20 1.62 11.21 2.30Q11.23 2.98 11.25 3.49L11.25 3.49Q11.27 4.10 11.27 4.59L11.27 4.59Q11.30 5.25 11.20 6.34Q11.11 7.43 11.00 8.63Q10.90 9.82 10.82 10.96Q10.73 12.09 10.78 12.84L10.78 12.84Q10.78 13.24 10.82 13.58Q10.85 13.92 10.90 14.25L10.90 14.25Q11.20 13.41 11.58 12.48Q11.95 11.55 12.33 10.70Q12.70 9.84 13.03 9.11Q13.36 8.37 13.55 7.88L13.55 7.88Q13.83 7.22 14.30 6.21Q14.77 5.20 15.25 4.20Q15.73 3.19 16.14 2.34Q16.55 1.50 16.73 1.17L16.73 1.17Q16.88 0.94 17.21 0.75Q17.55 0.56 17.94 0.42Q18.33 0.28 18.67 0.22Q19.01 0.16 19.13 0.21L19.13 0.21Q19.43 0.28 19.56 0.40Q19.69 0.52 19.71 0.56L19.71 0.56Q19.76 0.66 19.78 0.88Q19.80 1.10 19.76 1.57L19.76 1.57Q19.71 2.13 19.49 3.28Q19.27 4.43 18.95 5.89Q18.63 7.36 18.27 9.02Q17.91 10.69 17.58 12.29Q17.25 13.90 17.00 15.30Q16.76 16.71 16.69 17.67L16.69 17.67Q16.64 18.75 16.83 19.57L16.83 19.57Q16.90 19.92 17.04 20.25Q17.18 20.58 17.41 20.82Q17.65 21.07 17.98 21.19Q18.30 21.30 18.75 21.26L18.75 21.26Q18.16 21.66 17.60 21.84Q17.04 22.03 16.50 22.03L16.50 22.03Q15.91 22.05 15.47 21.86Q15.02 21.66 14.72 21.29Q14.41 20.93 14.27 20.43Q14.13 19.92 14.18 19.31L14.18 19.31Q14.23 18.75 14.48 17.46Q14.74 16.17 15.11 14.54Q15.47 12.91 15.90 11.14Q16.34 9.38 16.72 7.82Q17.11 6.26 17.39 5.13Q17.67 4.01 17.74 3.66L17.74 3.66Q17.79 3.38 17.82 3.13Q17.86 2.88 17.91 2.70L17.91 2.70Q17.67 3.16 17.33 3.82Q16.99 4.48 16.62 5.23Q16.24 5.98 15.86 6.79Q15.47 7.59 15.12 8.34L15.12 8.34Q14.53 9.56 13.97 10.84Q13.41 12.12 12.96 13.27Q12.52 14.41 12.22 15.33Q11.93 16.24 11.88 16.73L11.88 16.73L11.88 17.06Q11.88 17.20 11.89 17.39Q11.91 17.58 11.95 17.74L11.95 17.74L11.02 18.47Q10.80 18.54 10.65 18.59Q10.50 18.63 10.36 18.63L10.36 18.63Q9.82 18.63 9.54 18.07L9.54 18.07Q9.26 17.55 9.02 16.05Q8.79 14.55 8.88 12.38L8.88 12.38Q8.93 11.30 9.04 10.20Q9.14 9.09 9.25 8.09Q9.35 7.08 9.45 6.20Q9.54 5.32 9.54 4.69L9.54 4.69Q9.56 4.22 9.52 3.83Q9.47 3.45 9.42 3.12L9.42 3.12Q9.21 3.66 8.95 4.58Q8.70 5.51 8.41 6.63Q8.13 7.76 7.84 9Q7.55 10.24 7.28 11.39Q7.01 12.54 6.77 13.51Q6.54 14.48 6.40 15.07L6.40 15.07Q6.16 16.01 5.93 17.20Q5.70 18.40 5.34 19.46Q4.99 20.53 4.43 21.27Q3.87 22.01 2.98 22.03ZM30.19 0L30.19 0Q31.01 0 31.54 0.46Q32.06 0.91 31.99 2.11L31.99 2.11Q31.97 2.51 31.80 3.60Q31.64 4.69 31.41 6.16Q31.17 7.64 30.88 9.34Q30.59 11.04 30.33 12.66L30.33 12.66L30.82 12.66Q31.05 12.66 31.34 12.63Q31.62 12.61 31.92 12.56L31.92 12.56Q31.80 12.84 31.66 13.09Q31.52 13.34 31.38 13.52L31.38 13.52Q31.22 13.73 31.05 13.90L31.05 13.90Q30.84 14.16 30.56 14.36Q30.28 14.55 30.02 14.67L30.02 14.67Q29.86 15.82 29.75 16.72Q29.65 17.63 29.63 18.21L29.63 18.21Q29.58 19.10 29.67 19.88L29.67 19.88Q29.74 20.55 29.95 21.26Q30.16 21.96 30.63 22.38L30.63 22.38L27.91 23.27Q27.63 22.88 27.50 22.21Q27.38 21.54 27.33 20.88L27.33 20.88Q27.26 20.11 27.30 19.29L27.30 19.29Q27.35 18.47 27.56 17.14Q27.77 15.82 28.03 14.25L28.03 14.25Q27.56 14.11 27.01 14.02Q26.46 13.92 25.78 13.92L25.78 13.92Q25.17 13.92 24.50 13.97Q23.84 14.02 23.18 14.09L23.18 14.09Q22.90 15.12 22.62 16.27L22.62 16.27Q22.31 17.51 22.07 18.39Q21.82 19.27 21.60 19.85Q21.38 20.44 21.15 20.79Q20.93 21.14 20.67 21.30L20.67 21.30Q20.39 21.45 19.97 21.56L19.97 21.56Q19.57 21.68 18.96 21.80Q18.35 21.91 17.39 21.98L17.39 21.98Q17.74 21.56 18 21.21Q18.26 20.86 18.52 20.34Q18.77 19.83 19.09 19.02Q19.41 18.21 19.90 16.90L19.90 16.90Q20.11 16.36 20.33 15.71Q20.55 15.07 20.81 14.39L20.81 14.39Q19.97 14.51 19.38 14.60Q18.80 14.70 18.68 14.74L18.68 14.74Q18.49 14.77 18.38 14.74L18.38 14.74Q18.07 14.70 18.05 14.44L18.05 14.44Q18.07 14.11 18.27 13.99Q18.47 13.88 18.87 13.71L18.87 13.71Q19.05 13.62 19.72 13.37Q20.39 13.13 21.35 12.84L21.35 12.84Q21.70 11.86 22.04 10.89Q22.38 9.91 22.71 9.02Q23.04 8.13 23.34 7.35Q23.65 6.56 23.91 6L23.91 6Q24.30 5.13 24.93 4.09Q25.55 3.05 26.36 2.13Q27.16 1.22 28.14 0.61Q29.11 0 30.19 0ZM29.93 4.88L29.93 4.88Q30.19 3.82 30.28 3.14Q30.38 2.46 30.35 2.07Q30.33 1.69 30.20 1.54Q30.07 1.38 29.88 1.38L29.88 1.38Q29.58 1.38 29.13 1.62Q28.69 1.85 28.20 2.29Q27.70 2.72 27.22 3.36Q26.74 4.01 26.37 4.83L26.37 4.83Q25.83 6.05 25.15 7.82Q24.47 9.59 23.67 12.33L23.67 12.33Q24.14 12.26 24.60 12.21Q25.05 12.16 25.50 12.16L25.50 12.16Q26.30 12.16 27.02 12.22Q27.75 12.28 28.36 12.35L28.36 12.35Q28.57 11.23 28.79 10.14Q29.02 9.05 29.23 8.06Q29.44 7.08 29.61 6.26Q29.79 5.44 29.93 4.88Z" transform="translate(12.501, 21.246)"></path></svg>