<?xml version="1.0" standalone="no"?>
<svg xmlns="http://www.w3.org/2000/svg" viewBox="0 0 152.68437500000002 47.2734375" width="152.68437500000002" height="47.2734375"><rect fill="none" stroke="#ffffff" stroke-width="3" width="149.68437500000002" height="44.2734375" x="1.5" y="1.5"></rect><path fill="#000000" fill-rule="nonzero" d="M2.98 22.03L2.98 22.03Q2.06 22.05 1.46 21.70Q0.87 21.35 0.53 20.68Q0.19 20.02 0.09 19.07Q0 18.12 0.09 16.99L0.09 16.99Q0.21 16.13 0.52 15.19L0.52 15.19Q0.77 14.39 1.30 13.43Q1.83 12.47 2.72 11.55L2.72 11.55Q2.91 11.60 3.02 11.66Q3.14 11.72 3.21 11.79L3.21 11.79Q3.28 11.88 3.30 11.95L3.30 11.95Q3.35 12.21 3.16 12.54Q2.98 12.87 2.79 13.24L2.79 13.24Q2.27 14.32 2.02 15.28Q1.76 16.24 1.69 17.06L1.69 17.06Q1.64 17.77 1.70 18.34Q1.76 18.91 1.88 19.32Q1.99 19.73 2.13 19.96Q2.27 20.18 2.39 20.18L2.39 20.18Q2.51 20.18 2.64 20.02Q2.77 19.85 2.88 19.62L2.88 19.62Q3.02 19.38 3.21 18.90Q3.40 18.42 3.61 17.79Q3.82 17.16 4.02 16.42Q4.22 15.68 4.38 14.93L4.38 14.93Q4.71 13.43 5.09 11.54Q5.46 9.66 6.19 7.59L6.19 7.59Q6.42 6.73 6.77 5.70L6.77 5.70Q7.05 4.80 7.49 3.62Q7.92 2.44 8.48 1.05L8.48 1.05Q8.48 0.94 8.68 0.83Q8.88 0.73 9.14 0.61L9.14 0.61Q9.42 0.49 9.77 0.38L9.77 0.38Q10.24 0.21 10.51 0.19Q10.78 0.16 10.92 0.26Q11.06 0.35 11.11 0.50Q11.16 0.66 11.16 0.84L11.16 0.84Q11.20 1.62 11.21 2.30Q11.23 2.98 11.25 3.49L11.25 3.49Q11.27 4.10 11.27 4.59L11.27 4.59Q11.30 5.25 11.20 6.34Q11.11 7.43 11.00 8.63Q10.90 9.82 10.82 10.96Q10.73 12.09 10.78 12.84L10.78 12.84Q10.78 13.24 10.82 13.58Q10.85 13.92 10.90 14.25L10.90 14.25Q11.20 13.41 11.58 12.48Q11.95 11.55 12.33 10.70Q12.70 9.84 13.03 9.11Q13.36 8.37 13.55 7.88L13.55 7.88Q13.83 7.22 14.30 6.21Q14.77 5.20 15.25 4.20Q15.73 3.19 16.14 2.34Q16.55 1.50 16.73 1.17L16.73 1.17Q16.88 0.94 17.21 0.75Q17.55 0.56 17.94 0.42Q18.33 0.28 18.67 0.22Q19.01 0.16 19.13 0.21L19.13 0.21Q19.43 0.28 19.56 0.40Q19.69 0.52 19.71 0.56L19.71 0.56Q19.76 0.66 19.78 0.88Q19.80 1.10 19.76 1.57L19.76 1.57Q19.71 2.13 19.49 3.28Q19.27 4.43 18.95 5.89Q18.63 7.36 18.27 9.02Q17.91 10.69 17.58 12.29Q17.25 13.90 17.00 15.30Q16.76 16.71 16.69 17.67L16.69 17.67Q16.64 18.75 16.83 19.57L16.83 19.57Q16.90 19.92 17.04 20.25Q17.18 20.58 17.41 20.82Q17.65 21.07 17.98 21.19Q18.30 21.30 18.75 21.26L18.75 21.26Q18.16 21.66 17.60 21.84Q17.04 22.03 16.50 22.03L16.50 22.03Q15.91 22.05 15.47 21.86Q15.02 21.66 14.72 21.29Q14.41 20.93 14.27 20.43Q14.13 19.92 14.18 19.31L14.18 19.31Q14.23 18.75 14.48 17.46Q14.74 16.17 15.11 14.54Q15.47 12.91 15.90 11.14Q16.34 9.38 16.72 7.82Q17.11 6.26 17.39 5.13Q17.67 4.01 17.74 3.66L17.74 3.66Q17.79 3.38 17.82 3.13Q17.86 2.88 17.91 2.70L17.91 2.70Q17.67 3.16 17.33 3.82Q16.99 4.48 16.62 5.23Q16.24 5.98 15.86 6.79Q15.47 7.59 15.12 8.34L15.12 8.34Q14.53 9.56 13.97 10.84Q13.41 12.12 12.96 13.27Q12.52 14.41 12.22 15.33Q11.93 16.24 11.88 16.73L11.88 16.73L11.88 17.06Q11.88 17.20 11.89 17.39Q11.91 17.58 11.95 17.74L11.95 17.74L11.02 18.47Q10.80 18.54 10.65 18.59Q10.50 18.63 10.36 18.63L10.36 18.63Q9.82 18.63 9.54 18.07L9.54 18.07Q9.26 17.55 9.02 16.05Q8.79 14.55 8.88 12.38L8.88 12.38Q8.93 11.30 9.04 10.20Q9.14 9.09 9.25 8.09Q9.35 7.08 9.45 6.20Q9.54 5.32 9.54 4.69L9.54 4.69Q9.56 4.22 9.52 3.83Q9.47 3.45 9.42 3.12L9.42 3.12Q9.21 3.66 8.95 4.58Q8.70 5.51 8.41 6.63Q8.13 7.76 7.84 9Q7.55 10.24 7.28 11.39Q7.01 12.54 6.77 13.51Q6.54 14.48 6.40 15.07L6.40 15.07Q6.16 16.01 5.93 17.20Q5.70 18.40 5.34 19.46Q4.99 20.53 4.43 21.27Q3.87 22.01 2.98 22.03ZM32.06 12.98L32.06 12.98Q31.73 13.45 31.22 14.14Q30.70 14.84 30.15 15.53Q29.60 16.22 29.07 16.79Q28.55 17.37 28.20 17.60L28.20 17.60Q27.96 17.74 27.66 17.84Q27.35 17.93 27.04 17.95Q26.72 17.98 26.44 17.92Q26.16 17.86 25.95 17.72L25.95 17.72Q25.73 17.55 25.59 17.25L25.59 17.25Q25.48 16.99 25.37 16.57Q25.27 16.15 25.29 15.52L25.29 15.52Q24.73 16.45 24.05 16.96Q23.37 17.46 22.76 17.70L22.76 17.70Q22.05 17.95 21.35 18L21.35 18Q21.02 18 20.65 17.78Q20.27 17.55 20.02 17.07Q19.76 16.59 19.69 15.83Q19.62 15.07 19.88 14.02L19.88 14.02Q20.20 12.59 20.92 11.41Q21.63 10.24 22.48 9.41Q23.32 8.58 24.14 8.16Q24.96 7.73 25.50 7.78L25.50 7.78Q26.13 7.90 26.53 8.16L26.53 8.16Q26.86 8.39 26.96 8.85Q27.07 9.30 26.58 10.05L26.58 10.05Q26.91 9.98 27.13 9.96Q27.35 9.94 27.47 9.94L27.47 9.94Q27.61 9.94 27.66 9.96L27.66 9.96Q27.68 10.01 27.68 10.16Q27.68 10.31 27.61 10.71Q27.54 11.11 27.40 11.79Q27.26 12.47 27.02 13.55L27.02 13.55Q26.98 13.76 26.94 13.93Q26.91 14.11 26.87 14.29Q26.84 14.46 26.79 14.70Q26.74 14.93 26.67 15.28L26.67 15.28Q26.65 15.49 26.66 15.74Q26.67 15.98 26.74 16.20Q26.81 16.41 26.96 16.54Q27.12 16.66 27.40 16.66L27.40 16.66Q27.63 16.66 28.01 16.37Q28.38 16.08 28.80 15.62Q29.23 15.16 29.68 14.61Q30.14 14.06 30.54 13.55Q30.94 13.03 31.25 12.63Q31.57 12.23 31.71 12.05L31.71 12.05Q31.90 11.84 32.09 11.80Q32.27 11.77 32.37 11.91Q32.46 12.05 32.40 12.33Q32.34 12.61 32.06 12.98ZM25.20 14.02L25.20 14.02Q25.31 13.55 25.48 12.91Q25.64 12.28 25.76 11.70Q25.88 11.11 25.93 10.72Q25.99 10.34 25.90 10.36L25.90 10.36Q25.78 10.38 25.64 10.43L25.64 10.43Q25.52 10.48 25.34 10.50Q25.15 10.52 24.96 10.57L24.96 10.57Q25.15 10.20 25.18 9.95Q25.22 9.70 25.20 9.56L25.20 9.56Q25.17 9.40 25.10 9.30L25.10 9.30Q24.84 9.09 24.20 9.64Q23.55 10.20 22.71 11.67L22.71 11.67Q22.36 12.28 22.15 12.97Q21.94 13.66 21.86 14.27Q21.77 14.88 21.82 15.34Q21.87 15.80 22.01 15.94L22.01 15.94Q22.27 16.20 22.59 16.18Q22.92 16.17 23.26 16.00Q23.60 15.82 23.94 15.54Q24.28 15.26 24.55 14.95Q24.82 14.65 25.00 14.39Q25.17 14.13 25.20 14.02ZM29.60 17.53L29.60 17.53Q29.44 17.79 29.24 17.87Q29.04 17.95 28.89 17.89Q28.73 17.84 28.69 17.65Q28.64 17.46 28.78 17.18L28.78 17.18Q28.85 17.04 29.10 16.55Q29.34 16.05 29.68 15.36Q30.02 14.67 30.42 13.86Q30.82 13.05 31.18 12.33Q31.55 11.60 31.85 11.03Q32.16 10.45 32.30 10.20L32.30 10.20Q32.04 9.96 31.95 9.86Q31.85 9.75 31.80 9.40L31.80 9.40Q31.76 9.09 31.95 8.60Q32.13 8.11 32.44 7.65Q32.74 7.20 33.12 6.87Q33.49 6.54 33.84 6.54L33.84 6.54Q34.50 6.54 34.77 6.96Q35.04 7.38 35.09 7.83L35.09 7.83Q35.13 8.13 35.04 8.60Q34.95 9.07 34.69 9.45L34.69 9.45Q34.76 9.49 34.88 9.55Q34.99 9.61 35.25 9.61L35.25 9.61Q35.63 9.61 35.78 9.56Q35.93 9.52 36.26 9.52L36.26 9.52Q36.66 9.52 36.91 9.71Q37.17 9.91 37.34 10.21Q37.50 10.50 37.58 10.84Q37.66 11.18 37.69 11.46L37.69 11.46Q37.76 12.05 37.38 12.68Q37.01 13.31 36.47 14.06L36.47 14.06Q36.14 14.53 35.81 15.12Q35.48 15.70 35.53 16.17L35.53 16.17Q35.58 16.48 35.70 16.66Q35.81 16.85 36.35 16.85L36.35 16.85Q36.75 16.85 37.23 16.56Q37.71 16.27 38.21 15.81Q38.72 15.35 39.21 14.80Q39.70 14.25 40.13 13.72Q40.55 13.20 40.84 12.77Q41.13 12.35 41.27 12.16L41.27 12.16Q41.39 11.98 41.58 11.91Q41.77 11.84 41.91 11.91Q42.05 11.98 42.08 12.19Q42.12 12.40 41.91 12.75L41.91 12.75Q41.77 12.98 41.43 13.50Q41.09 14.02 40.61 14.65Q40.13 15.28 39.54 15.95Q38.95 16.62 38.31 17.17Q37.66 17.72 37.02 18.07Q36.38 18.42 35.79 18.42L35.79 18.42Q35.18 18.42 34.78 18.19Q34.38 17.95 34.14 17.61Q33.89 17.27 33.79 16.86Q33.68 16.45 33.70 16.10L33.70 16.10Q33.73 15.82 33.86 15.50Q33.98 15.19 34.16 14.85Q34.34 14.51 34.54 14.17Q34.73 13.83 34.90 13.50L34.90 13.50Q35.30 12.82 35.54 12.34Q35.79 11.86 35.79 11.53L35.79 11.53Q35.79 11.32 35.70 11.16Q35.60 10.99 35.39 10.99L35.39 10.99Q35.25 10.99 35.19 11.00Q35.13 11.02 35.07 11.02Q35.02 11.02 34.91 11.03Q34.80 11.04 34.59 11.04L34.59 11.04Q34.29 11.04 34.08 10.95Q33.87 10.85 33.68 10.80L33.68 10.80Q33.59 10.97 33.26 11.51Q32.93 12.05 32.50 12.77Q32.06 13.50 31.58 14.30Q31.10 15.09 30.68 15.79Q30.26 16.48 29.96 16.96Q29.67 17.44 29.60 17.53ZM45.40 3.84L45.40 3.84Q45.33 4.10 45.13 4.35Q44.93 4.59 44.68 4.75Q44.44 4.90 44.18 4.95Q43.92 4.99 43.76 4.85L43.76 4.85Q43.27 4.48 43.24 4.04Q43.22 3.61 43.45 3.22Q43.69 2.84 44.04 2.57Q44.39 2.30 44.65 2.25L44.65 2.25Q44.91 2.20 45.08 2.36Q45.26 2.51 45.35 2.75Q45.45 3 45.46 3.30Q45.47 3.61 45.40 3.84ZM42.16 8.84L42.16 8.84Q42.28 8.70 42.61 8.60Q42.94 8.51 43.29 8.45Q43.64 8.39 43.93 8.38Q44.23 8.37 44.27 8.39L44.27 8.39Q44.30 8.41 44.16 8.88Q44.02 9.35 43.80 9.98Q43.59 10.62 43.36 11.29Q43.13 11.95 43.01 12.38L43.01 12.38Q42.89 12.80 42.73 13.32Q42.56 13.85 42.43 14.36Q42.30 14.86 42.26 15.30Q42.21 15.75 42.33 15.98L42.33 15.98Q42.45 16.27 42.59 16.37Q42.73 16.48 42.89 16.48L42.89 16.48Q43.36 16.48 44.07 15.96Q44.79 15.45 45.53 14.73Q46.27 14.02 46.90 13.28Q47.53 12.54 47.84 12.09L47.84 12.09Q48.02 11.86 48.22 11.79Q48.42 11.72 48.55 11.81Q48.68 11.91 48.69 12.12Q48.70 12.33 48.54 12.61L48.54 12.61Q48.16 13.27 47.44 14.17Q46.71 15.07 45.89 15.90Q45.07 16.73 44.29 17.32Q43.50 17.91 43.01 17.93L43.01 17.93Q42.61 17.95 42.22 17.80Q41.84 17.65 41.52 17.38Q41.20 17.11 40.99 16.75Q40.78 16.38 40.76 15.98L40.76 15.98Q40.69 15.40 40.76 14.38Q40.83 13.36 41.02 12.29Q41.20 11.23 41.50 10.27Q41.79 9.30 42.16 8.84ZM58.85 12.98L58.85 12.98Q58.31 13.88 57.62 14.82Q56.93 15.77 56.16 16.56Q55.38 17.34 54.56 17.86Q53.74 18.38 52.92 18.38L52.92 18.38Q52.10 18.38 51.74 17.82Q51.38 17.27 51.40 16.59L51.40 16.59Q51.40 16.29 51.46 16.05Q51.52 15.82 51.59 15.63Q51.66 15.45 51.74 15.25Q51.82 15.05 51.89 14.79L51.89 14.79Q51.98 14.48 51.90 14.24Q51.82 13.99 51.70 13.80L51.70 13.80Q51.49 14.04 51.22 14.21Q50.95 14.39 50.55 14.39L50.55 14.39Q50.27 14.39 50.04 14.12Q49.80 13.85 49.80 13.45L49.80 13.45Q49.80 13.13 49.96 12.91Q50.11 12.70 50.31 12.59Q50.51 12.47 50.72 12.42Q50.93 12.38 51.07 12.38L51.07 12.38Q51.14 12.38 51.36 12.40Q51.59 12.42 51.84 12.47L51.84 12.47Q52.69 11.79 53.05 11.24Q53.41 10.69 53.11 10.24L53.11 10.24Q52.92 9.94 52.64 9.93Q52.36 9.91 52.05 10.07Q51.75 10.22 51.46 10.45Q51.16 10.69 50.93 10.90L50.93 10.90Q50.46 11.37 49.89 12.01Q49.31 12.66 48.94 13.08L48.94 13.08Q48.77 13.78 48.61 14.55L48.61 14.55Q48.47 15.23 48.29 16.09Q48.12 16.95 47.93 17.86L47.93 17.86Q47.79 17.93 47.64 17.96Q47.48 18 47.37 18.02L47.37 18.02Q47.23 18.05 47.09 18.05L47.09 18.05Q46.90 18.05 46.73 18.04Q46.57 18.02 46.46 17.92Q46.36 17.81 46.35 17.58Q46.34 17.34 46.48 16.92L46.48 16.92Q46.66 16.31 46.95 15.29Q47.23 14.27 47.53 13.05Q47.84 11.84 48.15 10.51Q48.47 9.19 48.75 7.98Q49.03 6.77 49.23 5.80Q49.43 4.83 49.52 4.27L49.52 4.27Q49.59 3.66 49.66 3.09L49.66 3.09Q49.71 2.63 49.72 2.17Q49.73 1.71 49.66 1.48L49.66 1.48Q49.78 1.36 49.99 1.27Q50.20 1.17 50.46 1.13L50.46 1.13Q50.72 1.05 51.07 1.01L51.07 1.01Q51.47 0.96 51.74 0.98Q52.01 1.01 52.13 1.22L52.13 1.22Q52.27 1.45 52.18 2.00Q52.10 2.55 51.84 3.54L51.84 3.54Q51.52 4.80 51.18 5.85Q50.84 6.89 50.52 7.80Q50.20 8.72 49.91 9.57Q49.62 10.43 49.38 11.32L49.38 11.32Q49.85 10.64 50.55 9.88Q51.26 9.12 52.15 8.63L52.15 8.63Q53.09 8.13 53.70 8.13L53.70 8.13Q54.45 8.13 54.77 8.64Q55.10 9.14 55.08 9.82L55.08 9.82Q55.05 10.36 54.81 10.82Q54.56 11.27 54.21 11.66Q53.86 12.05 53.46 12.33Q53.06 12.61 52.78 12.80L52.78 12.80Q53.11 12.98 53.36 13.30Q53.60 13.62 53.58 14.09L53.58 14.09Q53.55 14.72 53.33 15.20Q53.11 15.68 53.11 16.08L53.11 16.08Q53.13 16.38 53.24 16.52Q53.34 16.66 53.70 16.66L53.70 16.66Q54.33 16.66 55.02 16.13Q55.71 15.59 56.32 14.88Q56.93 14.18 57.45 13.49Q57.96 12.80 58.24 12.47L58.24 12.47Q58.64 12.05 58.91 12.25Q59.18 12.45 58.85 12.98ZM69.42 12.98L69.42 12.98Q69.09 13.45 68.58 14.14Q68.06 14.84 67.51 15.53Q66.96 16.22 66.43 16.79Q65.91 17.37 65.55 17.60L65.55 17.60Q65.32 17.74 65.02 17.84Q64.71 17.93 64.39 17.95Q64.08 17.98 63.80 17.92Q63.52 17.86 63.30 17.72L63.30 17.72Q63.09 17.55 62.95 17.25L62.95 17.25Q62.84 16.99 62.73 16.57Q62.63 16.15 62.65 15.52L62.65 15.52Q62.09 16.45 61.41 16.96Q60.73 17.46 60.12 17.70L60.12 17.70Q59.41 17.95 58.71 18L58.71 18Q58.38 18 58.01 17.78Q57.63 17.55 57.38 17.07Q57.12 16.59 57.05 15.83Q56.98 15.07 57.23 14.02L57.23 14.02Q57.56 12.59 58.28 11.41Q58.99 10.24 59.84 9.41Q60.68 8.58 61.50 8.16Q62.32 7.73 62.86 7.78L62.86 7.78Q63.49 7.90 63.89 8.16L63.89 8.16Q64.22 8.39 64.32 8.85Q64.43 9.30 63.94 10.05L63.94 10.05Q64.27 9.98 64.49 9.96Q64.71 9.94 64.83 9.94L64.83 9.94Q64.97 9.94 65.02 9.96L65.02 9.96Q65.04 10.01 65.04 10.16Q65.04 10.31 64.97 10.71Q64.90 11.11 64.76 11.79Q64.62 12.47 64.38 13.55L64.38 13.55Q64.34 13.76 64.30 13.93Q64.27 14.11 64.23 14.29Q64.20 14.46 64.15 14.70Q64.10 14.93 64.03 15.28L64.03 15.28Q64.01 15.49 64.02 15.74Q64.03 15.98 64.10 16.20Q64.17 16.41 64.32 16.54Q64.48 16.66 64.76 16.66L64.76 16.66Q64.99 16.66 65.37 16.37Q65.74 16.08 66.16 15.62Q66.59 15.16 67.04 14.61Q67.50 14.06 67.90 13.55Q68.30 13.03 68.61 12.63Q68.93 12.23 69.07 12.05L69.07 12.05Q69.26 11.84 69.45 11.80Q69.63 11.77 69.73 11.91Q69.82 12.05 69.76 12.33Q69.70 12.61 69.42 12.98ZM62.55 14.02L62.55 14.02Q62.67 13.55 62.84 12.91Q63 12.28 63.12 11.70Q63.23 11.11 63.29 10.72Q63.35 10.34 63.26 10.36L63.26 10.36Q63.14 10.38 63 10.43L63 10.43Q62.88 10.48 62.70 10.50Q62.51 10.52 62.32 10.57L62.32 10.57Q62.51 10.20 62.54 9.95Q62.58 9.70 62.55 9.56L62.55 9.56Q62.53 9.40 62.46 9.30L62.46 9.30Q62.20 9.09 61.56 9.64Q60.91 10.20 60.07 11.67L60.07 11.67Q59.72 12.28 59.51 12.97Q59.30 13.66 59.21 14.27Q59.13 14.88 59.18 15.34Q59.23 15.80 59.37 15.94L59.37 15.94Q59.63 16.20 59.95 16.18Q60.28 16.17 60.62 16.00Q60.96 15.82 61.30 15.54Q61.64 15.26 61.91 14.95Q62.18 14.65 62.36 14.39Q62.53 14.13 62.55 14.02ZM84.73 0L84.73 0Q85.55 0 86.07 0.46Q86.60 0.91 86.53 2.11L86.53 2.11Q86.51 2.51 86.34 3.60Q86.18 4.69 85.95 6.16Q85.71 7.64 85.42 9.34Q85.13 11.04 84.87 12.66L84.87 12.66L85.36 12.66Q85.59 12.66 85.88 12.63Q86.16 12.61 86.46 12.56L86.46 12.56Q86.34 12.84 86.20 13.09Q86.06 13.34 85.92 13.52L85.92 13.52Q85.76 13.73 85.59 13.90L85.59 13.90Q85.38 14.16 85.10 14.36Q84.82 14.55 84.56 14.67L84.56 14.67Q84.40 15.82 84.29 16.72Q84.19 17.63 84.16 18.21L84.16 18.21Q84.12 19.10 84.21 19.88L84.21 19.88Q84.28 20.55 84.49 21.26Q84.70 21.96 85.17 22.38L85.17 22.38L82.45 23.27Q82.17 22.88 82.04 22.21Q81.91 21.54 81.87 20.88L81.87 20.88Q81.80 20.11 81.84 19.29L81.84 19.29Q81.89 18.47 82.10 17.14Q82.31 15.82 82.57 14.25L82.57 14.25Q82.10 14.11 81.55 14.02Q81 13.92 80.32 13.92L80.32 13.92Q79.71 13.92 79.04 13.97Q78.38 14.02 77.72 14.09L77.72 14.09Q77.44 15.12 77.16 16.27L77.16 16.27Q76.85 17.51 76.61 18.39Q76.36 19.27 76.14 19.85Q75.91 20.44 75.69 20.79Q75.47 21.14 75.21 21.30L75.21 21.30Q74.93 21.45 74.51 21.56L74.51 21.56Q74.11 21.68 73.50 21.80Q72.89 21.91 71.93 21.98L71.93 21.98Q72.28 21.56 72.54 21.21Q72.80 20.86 73.05 20.34Q73.31 19.83 73.63 19.02Q73.95 18.21 74.44 16.90L74.44 16.90Q74.65 16.36 74.87 15.71Q75.09 15.07 75.35 14.39L75.35 14.39Q74.51 14.51 73.92 14.60Q73.34 14.70 73.22 14.74L73.22 14.74Q73.03 14.77 72.91 14.74L72.91 14.74Q72.61 14.70 72.59 14.44L72.59 14.44Q72.61 14.11 72.81 13.99Q73.01 13.88 73.41 13.71L73.41 13.71Q73.59 13.62 74.26 13.37Q74.93 13.13 75.89 12.84L75.89 12.84Q76.24 11.86 76.58 10.89Q76.92 9.91 77.25 9.02Q77.58 8.13 77.88 7.35Q78.19 6.56 78.45 6L78.45 6Q78.84 5.13 79.46 4.09Q80.09 3.05 80.89 2.13Q81.70 1.22 82.68 0.61Q83.65 0 84.73 0ZM84.47 4.88L84.47 4.88Q84.73 3.82 84.82 3.14Q84.91 2.46 84.89 2.07Q84.87 1.69 84.74 1.54Q84.61 1.38 84.42 1.38L84.42 1.38Q84.12 1.38 83.67 1.62Q83.23 1.85 82.73 2.29Q82.24 2.72 81.76 3.36Q81.28 4.01 80.91 4.83L80.91 4.83Q80.37 6.05 79.69 7.82Q79.01 9.59 78.21 12.33L78.21 12.33Q78.68 12.26 79.14 12.21Q79.59 12.16 80.04 12.16L80.04 12.16Q80.84 12.16 81.56 12.22Q82.29 12.28 82.90 12.35L82.90 12.35Q83.11 11.23 83.33 10.14Q83.55 9.05 83.77 8.06Q83.98 7.08 84.15 6.26Q84.33 5.44 84.47 4.88ZM94.80 18.23L94.80 18.23Q94.27 18.23 93.88 18.04Q93.49 17.84 93.26 17.51Q93.02 17.18 92.95 16.75Q92.88 16.31 93 15.82L93 15.82Q93.07 15.49 93.23 14.94Q93.40 14.39 93.57 13.75Q93.75 13.10 93.90 12.46Q94.05 11.81 94.10 11.29Q94.15 10.76 94.05 10.42Q93.96 10.08 93.66 10.08L93.66 10.08Q93.28 10.08 92.88 10.32Q92.48 10.57 92.07 10.99Q91.66 11.41 91.25 11.96Q90.84 12.52 90.45 13.10L90.45 13.10Q90.23 13.90 90.09 14.50Q89.95 15.09 89.85 15.57Q89.74 16.05 89.65 16.42Q89.55 16.78 89.48 17.11L89.48 17.11Q89.41 17.34 89.06 17.57Q88.71 17.79 88.31 17.93Q87.91 18.07 87.62 18.07Q87.33 18.07 87.38 17.86L87.38 17.86Q87.40 17.72 87.53 17.23Q87.66 16.73 87.83 16.07Q88.01 15.40 88.20 14.65Q88.38 13.90 88.55 13.22L88.55 13.22Q88.66 12.68 88.80 12.02L88.80 12.02Q88.92 11.46 89.10 10.71Q89.27 9.96 89.51 9.07L89.51 9.07Q89.67 8.93 89.85 8.85Q90.02 8.77 90.21 8.72L90.21 8.72Q90.40 8.65 90.61 8.63L90.61 8.63Q90.80 8.63 90.98 8.65L90.98 8.65Q91.15 8.67 91.32 8.73Q91.50 8.79 91.64 8.91L91.64 8.91Q91.57 9.07 91.48 9.36Q91.38 9.66 91.29 9.98L91.29 9.98Q91.20 10.36 91.05 10.76L91.05 10.76Q91.36 10.34 91.75 9.90Q92.13 9.47 92.59 9.12Q93.05 8.77 93.56 8.54Q94.08 8.32 94.62 8.32L94.62 8.32Q95.06 8.32 95.41 8.58Q95.77 8.84 95.96 9.29Q96.16 9.75 96.20 10.38Q96.23 11.02 96.02 11.77L96.02 11.77L95.77 12.80Q95.65 13.29 95.47 13.96Q95.30 14.63 95.04 15.42L95.04 15.42Q94.90 15.94 94.93 16.31Q94.97 16.69 95.39 16.69L95.39 16.69Q95.81 16.69 96.46 16.17Q97.10 15.66 97.76 14.93Q98.41 14.20 99 13.44Q99.59 12.68 99.89 12.21L99.89 12.21Q100.10 11.91 100.29 11.81Q100.48 11.72 100.58 11.79Q100.69 11.86 100.69 12.11Q100.69 12.35 100.50 12.73L100.50 12.73Q100.34 13.05 100.00 13.59Q99.66 14.13 99.19 14.74Q98.72 15.35 98.18 15.97Q97.64 16.59 97.05 17.10Q96.47 17.60 95.89 17.92Q95.32 18.23 94.80 18.23ZM106.38 13.17L106.38 13.17Q106.27 13.90 106.16 14.55Q106.05 15.21 106.03 15.61L106.03 15.61Q106.01 16.20 106.24 16.45Q106.48 16.71 106.76 16.71L106.76 16.71Q107.09 16.71 107.57 16.38Q108.05 16.05 108.59 15.56Q109.13 15.07 109.66 14.48Q110.20 13.90 110.66 13.37Q111.12 12.84 111.43 12.45Q111.75 12.05 111.87 11.93L111.87 11.93Q112.01 11.79 112.16 11.77Q112.31 11.74 112.41 11.81Q112.50 11.88 112.50 12.07Q112.50 12.26 112.31 12.54L112.31 12.54Q112.03 12.98 111.59 13.58Q111.14 14.18 110.60 14.81Q110.06 15.45 109.46 16.05Q108.87 16.66 108.27 17.13Q107.67 17.60 107.12 17.89Q106.57 18.19 106.13 18.19L106.13 18.19Q105.80 18.19 105.50 18Q105.21 17.81 104.98 17.51Q104.74 17.20 104.61 16.83Q104.48 16.45 104.51 16.08L104.51 16.08Q104.53 15.91 104.58 15.52L104.58 15.52Q103.59 16.62 102.60 17.26Q101.60 17.91 100.69 17.91L100.69 17.91Q100.36 17.91 99.98 17.74Q99.61 17.58 99.32 17.20Q99.02 16.83 98.84 16.22Q98.65 15.61 98.70 14.74L98.70 14.74Q98.77 13.38 99.23 12.16Q99.70 10.95 100.42 10.04Q101.13 9.14 102.04 8.61Q102.94 8.09 103.85 8.09L103.85 8.09Q104.25 8.09 104.58 8.29Q104.91 8.48 105.14 8.80Q105.38 9.12 105.53 9.49Q105.68 9.87 105.75 10.20L105.75 10.20Q105.91 9.52 106.05 8.86Q106.20 8.20 106.34 7.62L106.34 7.62Q106.57 6.75 106.83 5.74L106.83 5.74Q107.06 4.88 107.37 3.75Q107.67 2.63 108.05 1.38L108.05 1.38Q108.28 1.20 108.49 1.10Q108.70 1.01 108.89 0.96L108.89 0.96Q109.10 0.89 109.29 0.89L109.29 0.89Q109.52 0.89 109.71 0.95Q109.90 1.01 110.03 1.25Q110.16 1.50 110.20 1.99Q110.25 2.48 110.20 3.33L110.20 3.33Q110.16 4.36 109.84 5.58Q109.52 6.80 109.01 8.10Q108.49 9.40 107.82 10.70Q107.16 12 106.38 13.17ZM105 13.48L105 13.48Q105.09 13.03 105.18 12.59Q105.26 12.14 105.38 11.67L105.38 11.67Q105.33 11.70 105.29 11.72Q105.26 11.74 105.21 11.77L105.21 11.77Q104.95 11.88 104.86 11.75Q104.77 11.63 104.77 11.34L104.77 11.34Q104.77 11.20 104.74 10.84Q104.72 10.48 104.61 10.09Q104.51 9.70 104.30 9.41Q104.09 9.12 103.71 9.12L103.71 9.12Q103.17 9.12 102.61 9.67Q102.05 10.22 101.55 11.00Q101.06 11.79 100.73 12.68Q100.41 13.57 100.36 14.27L100.36 14.27Q100.31 15.40 100.64 15.89Q100.97 16.38 101.53 16.38L101.53 16.38Q101.95 16.38 102.46 16.05Q102.96 15.73 103.44 15.26Q103.92 14.79 104.33 14.30Q104.74 13.80 105 13.48ZM109.64 17.53L109.64 17.53Q109.48 17.79 109.28 17.87Q109.08 17.95 108.93 17.89Q108.77 17.84 108.73 17.65Q108.68 17.46 108.82 17.18L108.82 17.18Q108.89 17.04 109.14 16.55Q109.38 16.05 109.72 15.36Q110.06 14.67 110.46 13.86Q110.86 13.05 111.22 12.33Q111.59 11.60 111.89 11.03Q112.20 10.45 112.34 10.20L112.34 10.20Q112.08 9.96 111.98 9.86Q111.89 9.75 111.84 9.40L111.84 9.40Q111.80 9.09 111.98 8.60Q112.17 8.11 112.48 7.65Q112.78 7.20 113.16 6.87Q113.53 6.54 113.88 6.54L113.88 6.54Q114.54 6.54 114.81 6.96Q115.08 7.38 115.13 7.83L115.13 7.83Q115.17 8.13 115.08 8.60Q114.98 9.07 114.73 9.45L114.73 9.45Q114.80 9.49 114.91 9.55Q115.03 9.61 115.29 9.61L115.29 9.61Q115.66 9.61 115.82 9.56Q115.97 9.52 116.30 9.52L116.30 9.52Q116.70 9.52 116.95 9.71Q117.21 9.91 117.38 10.21Q117.54 10.50 117.62 10.84Q117.70 11.18 117.73 11.46L117.73 11.46Q117.80 12.05 117.42 12.68Q117.05 13.31 116.51 14.06L116.51 14.06Q116.18 14.53 115.85 15.12Q115.52 15.70 115.57 16.17L115.57 16.17Q115.62 16.48 115.73 16.66Q115.85 16.85 116.39 16.85L116.39 16.85Q116.79 16.85 117.27 16.56Q117.75 16.27 118.25 15.81Q118.76 15.35 119.25 14.80Q119.74 14.25 120.16 13.72Q120.59 13.20 120.88 12.77Q121.17 12.35 121.31 12.16L121.31 12.16Q121.43 11.98 121.62 11.91Q121.80 11.84 121.95 11.91Q122.09 11.98 122.12 12.19Q122.16 12.40 121.95 12.75L121.95 12.75Q121.80 12.98 121.46 13.50Q121.13 14.02 120.64 14.65Q120.16 15.28 119.58 15.95Q118.99 16.62 118.35 17.17Q117.70 17.72 117.06 18.07Q116.41 18.42 115.83 18.42L115.83 18.42Q115.22 18.42 114.82 18.19Q114.42 17.95 114.18 17.61Q113.93 17.27 113.82 16.86Q113.72 16.45 113.74 16.10L113.74 16.10Q113.77 15.82 113.89 15.50Q114.02 15.19 114.20 14.85Q114.38 14.51 114.57 14.17Q114.77 13.83 114.94 13.50L114.94 13.50Q115.34 12.82 115.58 12.34Q115.83 11.86 115.83 11.53L115.83 11.53Q115.83 11.32 115.73 11.16Q115.64 10.99 115.43 10.99L115.43 10.99Q115.29 10.99 115.23 11.00Q115.17 11.02 115.11 11.02Q115.05 11.02 114.95 11.03Q114.84 11.04 114.63 11.04L114.63 11.04Q114.33 11.04 114.12 10.95Q113.91 10.85 113.72 10.80L113.72 10.80Q113.63 10.97 113.30 11.51Q112.97 12.05 112.54 12.77Q112.10 13.50 111.62 14.30Q111.14 15.09 110.72 15.79Q110.30 16.48 110.00 16.96Q109.71 17.44 109.64 17.53ZM125.44 3.84L125.44 3.84Q125.37 4.10 125.17 4.35Q124.97 4.59 124.72 4.75Q124.48 4.90 124.22 4.95Q123.96 4.99 123.80 4.85L123.80 4.85Q123.30 4.48 123.28 4.04Q123.26 3.61 123.49 3.22Q123.73 2.84 124.08 2.57Q124.43 2.30 124.69 2.25L124.69 2.25Q124.95 2.20 125.12 2.36Q125.30 2.51 125.39 2.75Q125.48 3 125.50 3.30Q125.51 3.61 125.44 3.84ZM122.20 8.84L122.20 8.84Q122.32 8.70 122.65 8.60Q122.98 8.51 123.33 8.45Q123.68 8.39 123.97 8.38Q124.27 8.37 124.31 8.39L124.31 8.39Q124.34 8.41 124.20 8.88Q124.05 9.35 123.84 9.98Q123.63 10.62 123.40 11.29Q123.16 11.95 123.05 12.38L123.05 12.38Q122.93 12.80 122.77 13.32Q122.60 13.85 122.47 14.36Q122.34 14.86 122.30 15.30Q122.25 15.75 122.37 15.98L122.37 15.98Q122.48 16.27 122.63 16.37Q122.77 16.48 122.93 16.48L122.93 16.48Q123.40 16.48 124.11 15.96Q124.83 15.45 125.57 14.73Q126.30 14.02 126.94 13.28Q127.57 12.54 127.88 12.09L127.88 12.09Q128.06 11.86 128.26 11.79Q128.46 11.72 128.59 11.81Q128.72 11.91 128.73 12.12Q128.74 12.33 128.58 12.61L128.58 12.61Q128.20 13.27 127.48 14.17Q126.75 15.07 125.93 15.90Q125.11 16.73 124.32 17.32Q123.54 17.91 123.05 17.93L123.05 17.93Q122.65 17.95 122.26 17.80Q121.88 17.65 121.56 17.38Q121.24 17.11 121.03 16.75Q120.82 16.38 120.80 15.98L120.80 15.98Q120.73 15.40 120.80 14.38Q120.87 13.36 121.05 12.29Q121.24 11.23 121.54 10.27Q121.83 9.30 122.20 8.84Z" transform="translate(12 12)"></path></svg>